<?xml version="1.0" encoding="UTF-8" standalone="no"?>
<svg
   xmlns:dc="http://purl.org/dc/elements/1.1/"
   xmlns:cc="http://creativecommons.org/ns#"
   xmlns:rdf="http://www.w3.org/1999/02/22-rdf-syntax-ns#"
   xmlns:svg="http://www.w3.org/2000/svg"
   xmlns="http://www.w3.org/2000/svg"
   xmlns:sodipodi="http://sodipodi.sourceforge.net/DTD/sodipodi-0.dtd"
   xmlns:inkscape="http://www.inkscape.org/namespaces/inkscape"
   width="8.88889in"
   height="5.55556in"
   viewBox="0 0 640 400"
   version="1.1"
   id="svg4605"
   sodipodi:docname="logo-path-1.svg"
   inkscape:version="0.92.2 5c3e80d, 2017-08-06">
  <metadata
     id="metadata4611">
    <rdf:RDF>
      <cc:Work
         rdf:about="">
        <dc:format>image/svg+xml</dc:format>
        <dc:type
           rdf:resource="http://purl.org/dc/dcmitype/StillImage" />
        <dc:title></dc:title>
      </cc:Work>
    </rdf:RDF>
  </metadata>
  <defs
     id="defs4609" />
  <sodipodi:namedview
     pagecolor="#ffffff"
     bordercolor="#666666"
     borderopacity="1"
     objecttolerance="10"
     gridtolerance="10"
     guidetolerance="10"
     inkscape:pageopacity="0"
     inkscape:pageshadow="2"
     inkscape:window-width="1233"
     inkscape:window-height="913"
     id="namedview4607"
     showgrid="false"
     inkscape:zoom="1.0739183"
     inkscape:cx="426.66673"
     inkscape:cy="266.66689"
     inkscape:window-x="1714"
     inkscape:window-y="32"
     inkscape:window-maximized="0"
     inkscape:current-layer="svg4605" />
  <path
     id="Path #3"
     fill="white"
     stroke="black"
     stroke-width="1"
     d="M 164.05,189.56            C 163.05,188.59 161.84,188.09 160.42,188.09              159.04,188.09 157.84,188.59 156.84,189.56              155.85,190.53 155.36,191.73 155.36,193.16              155.36,194.59 155.84,195.80 156.81,196.80              157.79,197.79 158.99,198.28 160.42,198.28              161.84,198.28 163.05,197.79 164.05,196.80              165.05,195.80 165.55,194.59 165.55,193.16              165.55,191.73 165.05,190.53 164.05,189.56 Z            M 178.64,222.00            C 178.64,222.00 184.59,222.00 184.59,222.00              184.59,222.00 184.59,186.02 184.59,186.02              184.59,186.02 178.64,186.02 178.64,186.02              178.64,186.02 178.64,222.00 178.64,222.00 Z            M 199.64,201.78            C 199.64,201.78 186.59,201.78 186.59,201.78              186.59,201.78 186.59,205.78 186.59,205.78              186.59,205.78 199.64,205.78 199.64,205.78              199.64,205.78 199.64,201.78 199.64,201.78 Z            M 186.59,186.02            C 186.59,186.02 186.59,190.45 186.59,190.45              186.59,190.45 201.16,190.45 201.16,190.45              201.16,190.45 201.16,186.02 201.16,186.02              201.16,186.02 186.59,186.02 186.59,186.02 Z            M 213.55,186.02            C 213.55,186.02 207.59,186.02 207.59,186.02              207.59,186.02 207.59,222.00 207.59,222.00              207.59,222.00 213.55,222.00 213.55,222.00              213.55,222.00 213.55,186.02 213.55,186.02 Z            M 239.33,191.09            C 239.49,190.80 239.69,190.44 239.92,190.00              240.15,189.55 240.39,189.08 240.66,188.58              240.91,188.07 241.14,187.61 241.34,187.19              240.43,186.61 239.23,186.17 237.75,185.89              236.27,185.61 234.81,185.45 233.38,185.42              233.38,185.42 233.38,190.36 233.38,190.36              234.38,190.30 235.21,190.31 235.86,190.41              236.52,190.50 237.05,190.62 237.48,190.78              237.91,190.93 238.23,191.09 238.45,191.25              238.68,191.41 238.88,191.52 239.05,191.58              239.08,191.55 239.17,191.39 239.33,191.09 Z            M 223.05,199.34            C 223.62,200.42 224.34,201.36 225.22,202.17              226.10,202.98 227.08,203.70 228.16,204.30              229.23,204.90 230.30,205.46 231.38,205.98              231.38,205.98 231.38,200.42 231.38,200.42              230.33,199.83 229.47,199.14 228.78,198.36              228.10,197.58 227.77,196.56 227.77,195.30              227.77,194.38 228.10,193.48 228.78,192.58              229.47,191.68 230.33,191.06 231.38,190.70              231.38,190.70 231.38,185.58 231.38,185.58              230.14,185.73 228.97,186.07 227.84,186.58              226.72,187.08 225.74,187.76 224.91,188.62              224.08,189.49 223.43,190.50 222.94,191.64              222.45,192.78 222.20,194.06 222.20,195.48              222.20,196.98 222.48,198.27 223.05,199.34 Z            M 221.95,219.61            C 222.50,220.10 223.16,220.52 223.92,220.86              224.69,221.20 225.50,221.46 226.34,221.66              227.20,221.86 228.04,222.00 228.86,222.08              229.69,222.16 230.50,222.20 231.28,222.20              231.28,222.20 231.38,222.20 231.38,222.20              231.38,222.20 231.38,217.56 231.38,217.56              231.38,217.56 231.23,217.56 231.23,217.56              230.58,217.56 229.88,217.50 229.12,217.38              228.38,217.24 227.64,217.07 226.89,216.86              226.14,216.64 225.41,216.41 224.72,216.17              224.02,215.92 223.44,215.67 222.98,215.41              222.98,215.41 221.95,219.61 221.95,219.61 Z            M 233.38,207.11            C 234.55,207.76 235.52,208.45 236.27,209.20              237.02,209.95 237.39,210.90 237.39,212.03              237.39,214.94 236.05,216.71 233.38,217.36              233.38,217.36 233.38,222.05 233.38,222.05              234.88,221.85 236.21,221.45 237.38,220.83              238.55,220.21 239.54,219.46 240.33,218.56              241.13,217.67 241.75,216.67 242.19,215.56              242.63,214.45 242.86,213.31 242.86,212.14              242.86,210.45 242.56,209.03 241.97,207.89              241.38,206.75 240.63,205.78 239.72,204.98              238.81,204.18 237.80,203.51 236.67,202.95              235.55,202.40 234.46,201.88 233.38,201.39              233.38,201.39 233.38,207.11 233.38,207.11 Z            M 270.12,186.02            C 270.12,186.02 270.12,201.78 270.12,201.78              270.12,201.78 256.55,201.78 256.55,201.78              256.55,201.78 256.55,205.78 256.55,205.78              256.55,205.78 270.12,205.78 270.12,205.78              270.12,205.78 270.12,222.00 270.12,222.00              270.12,222.00 275.98,222.00 275.98,222.00              275.98,222.00 275.98,186.02 275.98,186.02              275.98,186.02 270.12,186.02 270.12,186.02 Z            M 248.59,222.00            C 248.59,222.00 254.55,222.00 254.55,222.00              254.55,222.00 254.55,186.02 254.55,186.02              254.55,186.02 248.59,186.02 248.59,186.02              248.59,186.02 248.59,222.00 248.59,222.00 Z            M 302.59,186.02            C 302.59,186.02 297.66,186.02 297.66,186.02              297.66,186.02 298.44,194.45 298.44,194.45              298.44,194.45 301.81,194.45 301.81,194.45              301.81,194.45 302.59,186.02 302.59,186.02 Z            M 310.20,194.45            C 310.20,194.45 310.20,222.00 310.20,222.00              310.20,222.00 316.11,222.00 316.11,222.00              316.11,222.00 316.11,197.25 316.11,197.25              316.11,197.25 315.47,194.45 315.47,194.45              315.47,194.45 310.20,194.45 310.20,194.45 Z            M 327.67,195.08            C 326.67,194.48 325.44,194.17 323.97,194.17              322.99,194.17 321.98,194.34 320.95,194.66              319.93,194.98 318.98,195.37 318.11,195.83              318.11,195.83 318.11,199.59 318.11,199.59              318.83,199.26 319.57,199.02 320.33,198.88              321.10,198.73 321.71,198.66 322.16,198.66              323.27,198.66 324.13,198.88 324.75,199.33              325.36,199.77 325.85,200.38 326.20,201.16              326.57,201.94 326.80,202.84 326.89,203.84              326.99,204.84 327.05,205.90 327.05,207.02              327.05,207.02 327.05,222.00 327.05,222.00              327.05,222.00 333.00,222.00 333.00,222.00              333.00,222.00 333.00,206.52 333.00,206.52              333.00,205.73 332.98,204.94 332.95,204.12              332.92,203.31 332.83,202.51 332.69,201.72              332.54,200.92 332.31,200.15 332.00,199.42              331.69,198.68 331.25,198.04 330.70,197.48              329.69,196.48 328.68,195.67 327.67,195.08 Z            M 345.59,186.02            C 345.59,186.02 340.66,186.02 340.66,186.02              340.66,186.02 341.44,194.45 341.44,194.45              341.44,194.45 344.81,194.45 344.81,194.45              344.81,194.45 345.59,186.02 345.59,186.02 Z            M 390.86,189.33            C 388.38,186.92 385.32,185.64 381.67,185.47              381.67,185.47 381.67,190.31 381.67,190.31              382.65,190.38 383.56,190.62 384.41,191.05              385.26,191.46 386.06,192.10 386.81,192.95              386.81,192.95 390.86,189.33 390.86,189.33 Z            M 381.67,222.25            C 383.49,222.14 385.17,221.77 386.70,221.12              388.23,220.47 389.62,219.54 390.86,218.34              390.86,218.34 386.81,214.77 386.81,214.77              386.09,215.59 385.30,216.21 384.44,216.64              383.57,217.06 382.65,217.31 381.67,217.41              381.67,217.41 381.67,222.25 381.67,222.25 Z            M 366.91,211.53            C 367.60,213.76 368.57,215.64 369.81,217.17              371.05,218.70 372.51,219.88 374.19,220.73              375.86,221.58 377.69,222.07 379.67,222.20              379.67,222.20 379.67,217.41 379.67,217.41              378.63,217.28 377.63,216.93 376.67,216.34              375.71,215.75 374.88,214.90 374.16,213.80              373.44,212.70 372.88,211.33 372.47,209.70              372.06,208.07 371.84,206.11 371.81,203.83              371.84,201.59 372.06,199.65 372.47,198.00              372.88,196.36 373.44,195.00 374.16,193.92              374.88,192.85 375.70,192.03 376.64,191.47              377.59,190.90 378.60,190.53 379.67,190.36              379.67,190.36 379.67,185.47 379.67,185.47              377.69,185.64 375.86,186.15 374.19,187.00              372.51,187.84 371.05,189.03 369.81,190.56              368.57,192.09 367.60,193.95 366.91,196.17              366.21,198.38 365.86,200.93 365.86,203.83              365.86,206.73 366.21,209.30 366.91,211.53 Z            M 399.81,211.56            C 400.51,213.80 401.48,215.70 402.73,217.25              403.99,218.79 405.48,219.98 407.20,220.81              408.93,221.64 410.79,222.11 412.78,222.25              412.78,222.25 412.78,217.41 412.78,217.41              411.70,217.31 410.66,216.98 409.69,216.41              408.72,215.84 407.86,215.00 407.12,213.89              406.39,212.79 405.82,211.41 405.39,209.77              404.97,208.12 404.75,206.14 404.72,203.83              404.75,201.56 404.97,199.59 405.39,197.94              405.82,196.27 406.39,194.90 407.11,193.83              407.83,192.76 408.67,191.95 409.64,191.39              410.62,190.83 411.66,190.48 412.78,190.36              412.78,190.36 412.78,185.47 412.78,185.47              410.76,185.61 408.89,186.09 407.19,186.92              405.48,187.75 403.99,188.93 402.73,190.48              401.48,192.03 400.51,193.91 399.81,196.14              399.11,198.37 398.77,200.93 398.77,203.83              398.77,206.73 399.11,209.31 399.81,211.56 Z            M 414.73,190.31            C 415.80,190.41 416.83,190.74 417.80,191.31              418.77,191.89 419.63,192.72 420.36,193.81              421.10,194.90 421.68,196.26 422.09,197.91              422.52,199.55 422.75,201.53 422.78,203.83              422.75,206.14 422.52,208.12 422.09,209.77              421.68,211.41 421.11,212.78 420.39,213.88              419.67,214.96 418.82,215.79 417.84,216.36              416.88,216.93 415.84,217.28 414.73,217.41              414.73,217.41 414.73,222.25 414.73,222.25              416.74,222.11 418.59,221.64 420.28,220.81              421.98,219.98 423.45,218.79 424.70,217.25              425.96,215.70 426.95,213.80 427.66,211.56              428.38,209.31 428.73,206.73 428.73,203.83              428.73,200.93 428.38,198.37 427.66,196.14              426.95,193.91 425.96,192.03 424.70,190.48              423.45,188.93 421.97,187.73 420.27,186.89              418.55,186.05 416.71,185.57 414.73,185.47              414.73,185.47 414.73,190.31 414.73,190.31 Z            M 437.69,222.00            C 437.69,222.00 443.55,222.00 443.55,222.00              443.55,222.00 443.55,186.02 443.55,186.02              443.55,186.02 437.69,186.02 437.69,186.02              437.69,186.02 437.69,222.00 437.69,222.00 Z            M 445.55,186.02            C 445.55,186.02 445.55,190.45 445.55,190.45              445.55,190.45 446.97,190.45 446.97,190.45              449.77,190.45 452.05,190.82 453.80,191.56              455.55,192.29 456.95,193.25 457.97,194.44              459.00,195.62 459.69,196.95 460.05,198.42              460.41,199.88 460.59,201.36 460.59,202.86              460.59,207.67 459.71,211.35 457.95,213.89              456.19,216.43 453.33,217.70 449.36,217.70              449.36,217.70 445.55,217.70 445.55,217.70              445.55,217.70 445.55,222.00 445.55,222.00              445.55,222.00 451.31,222.00 451.31,222.00              451.77,222.00 452.47,221.95 453.41,221.83              454.35,221.71 455.39,221.45 456.53,221.05              457.68,220.64 458.86,220.03 460.08,219.22              461.30,218.41 462.39,217.29 463.38,215.88              464.35,214.46 465.16,212.70 465.78,210.61              466.41,208.51 466.73,205.97 466.73,203.00              466.73,200.86 466.36,198.77 465.61,196.73              464.87,194.70 463.74,192.88 462.22,191.28              460.71,189.69 458.80,188.41 456.50,187.45              454.21,186.50 451.55,186.02 448.53,186.02              448.53,186.02 445.55,186.02 445.55,186.02 Z            M 475.64,222.00            C 475.64,222.00 481.59,222.00 481.59,222.00              481.59,222.00 481.59,186.02 481.59,186.02              481.59,186.02 475.64,186.02 475.64,186.02              475.64,186.02 475.64,222.00 475.64,222.00 Z            M 496.64,201.78            C 496.64,201.78 483.59,201.78 483.59,201.78              483.59,201.78 483.59,205.78 483.59,205.78              483.59,205.78 496.64,205.78 496.64,205.78              496.64,205.78 496.64,201.78 496.64,201.78 Z            M 483.59,222.00            C 483.59,222.00 498.16,222.00 498.16,222.00              498.16,222.00 498.16,217.56 498.16,217.56              498.16,217.56 483.59,217.56 483.59,217.56              483.59,217.56 483.59,222.00 483.59,222.00 Z            M 483.59,186.02            C 483.59,186.02 483.59,190.45 483.59,190.45              483.59,190.45 498.16,190.45 498.16,190.45              498.16,190.45 498.16,186.02 498.16,186.02              498.16,186.02 483.59,186.02 483.59,186.02 Z            M 510.83,208.42            C 516.87,208.42 519.89,211.73 519.89,218.36              519.89,218.36 520.00,238.12 520.00,238.12              520.00,249.85 526.66,256.48 540.00,258.00              540.00,258.00 540.00,248.06 540.00,248.06              533.33,247.61 530.00,244.29 530.00,238.12              530.00,238.12 530.00,218.36 530.00,218.36              530.00,212.63 527.75,207.68 523.27,203.50              527.75,199.36 530.00,194.40 530.00,188.64              530.00,188.64 530.00,168.88 530.00,168.88              530.00,162.77 533.33,159.46 540.00,158.94              540.00,158.94 540.00,149.00 540.00,149.00              526.66,150.59 520.00,157.21 520.00,168.88              520.00,168.88 519.89,188.64 519.89,188.64              519.89,195.27 516.87,198.58 510.83,198.58              510.83,198.58 509.95,198.58 509.95,198.58              509.95,198.58 509.95,208.42 509.95,208.42              509.95,208.42 510.83,208.42 510.83,208.42 Z            M 115.25,202.28            C 115.25,202.28 169.58,177.36 169.58,177.36              169.58,177.36 169.58,166.19 169.58,166.19              169.58,166.19 103.59,198.06 103.59,198.06              103.59,198.06 103.59,206.50 103.59,206.50              103.59,206.50 169.58,238.75 169.58,238.75              169.58,238.75 169.58,227.58 169.58,227.58              169.58,227.58 115.25,202.28 115.25,202.28 Z" />
</svg>
